<?xml version="1.0" standalone="no"?>
<!DOCTYPE svg PUBLIC "-//W3C//DTD SVG 20010904//EN"
 "http://www.w3.org/TR/2001/REC-SVG-20010904/DTD/svg10.dtd">
<svg version="1.0" xmlns="http://www.w3.org/2000/svg"
 width="640.000000pt" height="640.000000pt" viewBox="0 0 640.000000 640.000000"
 preserveAspectRatio="xMidYMid meet">
<metadata>
Created by potrace 1.11, written by Peter Selinger 2001-2013
</metadata>
<g transform="translate(0.000000,640.000000) scale(0.100000,-0.100000)"
fill="#000000" stroke="none">
<path d="M4167 4490 c-60 -15 -90 -35 -170 -109 -41 -38 -107 -93 -146 -121
-52 -38 -71 -58 -71 -75 0 -44 22 -48 96 -16 l69 30 100 -202 c98 -197 176
-375 252 -567 35 -89 37 -102 37 -205 0 -122 -16 -194 -69 -310 -89 -197 -305
-314 -535 -290 -117 12 -248 48 -332 91 -47 24 -118 94 -140 139 -29 56 -35
162 -14 245 18 69 72 192 107 241 16 23 18 33 9 44 -10 12 -4 16 34 26 93 23
166 99 166 173 0 74 -2 74 -253 69 -172 -4 -248 -2 -337 11 -92 13 -206 16
-596 16 l-482 0 -31 -35 c-38 -44 -39 -59 -2 -95 l28 -29 -38 -25 c-42 -28
-117 -115 -177 -204 -49 -72 -55 -89 -37 -100 12 -6 -1 -24 -54 -78 -70 -71
-111 -136 -111 -174 0 -14 12 -26 38 -37 20 -10 38 -18 40 -19 2 -1 -49 -84
-112 -185 -63 -101 -113 -185 -111 -187 1 -2 25 8 52 22 54 27 137 111 229
230 32 42 65 76 74 76 8 0 31 -5 51 -10 l37 -10 -58 -59 c-133 -136 -178 -328
-120 -512 50 -164 209 -304 385 -339 115 -24 264 5 366 70 105 68 203 209 224
325 21 116 -3 265 -56 351 -10 17 -19 34 -19 36 0 3 41 -3 91 -13 146 -30 206
-75 193 -143 -10 -57 21 -141 70 -190 79 -79 57 -77 701 -74 l570 3 80 28
c169 59 290 156 391 313 30 46 56 84 59 84 2 0 -11 -30 -30 -67 -74 -150 -74
-299 1 -452 152 -309 566 -374 809 -127 155 158 190 398 87 590 -27 50 -123
156 -172 189 l-25 17 30 -7 c83 -19 94 4 39 78 -41 57 -113 114 -192 154 -62
30 -189 65 -240 65 -29 0 -33 3 -27 18 20 45 27 130 16 184 -32 150 -215 422
-480 713 -63 69 -81 94 -76 110 26 88 29 276 5 315 -11 17 -166 24 -223 10z"/>
<path d="M843 4323 c-7 -2 -13 -13 -13 -24 0 -18 13 -19 445 -19 430 0 445 1
445 19 0 10 -7 22 -16 25 -19 7 -843 7 -861 -1z"/>
<path d="M937 4193 c-4 -3 -7 -15 -7 -25 0 -17 20 -18 439 -18 295 0 442 3
446 10 4 6 1 17 -5 25 -11 13 -78 15 -440 15 -234 0 -430 -3 -433 -7z"/>
<path d="M1024 4055 c-11 -28 10 -36 87 -33 66 3 74 5 74 23 0 18 -8 20 -78
23 -64 2 -78 0 -83 -13z"/>
<path d="M1233 4054 c-3 -8 -1 -20 4 -25 5 -5 114 -8 269 -7 251 3 259 4 259
23 0 19 -8 20 -263 23 -232 2 -263 0 -269 -14z"/>
<path d="M932 3888 l3 -23 431 -3 c369 -2 433 0 444 12 6 9 9 20 5 26 -4 7
-151 10 -446 10 l-440 0 3 -22z"/>
</g>
</svg>
